<svg xmlns="http://www.w3.org/2000/svg" viewBox="0 0 363 350"><defs><style>.cls-1{fill:#161616;}.cls-2,.cls-6{fill:#3a3a28;}.cls-2{stroke:#cccbba;stroke-width:0.5px;}.cls-2,.cls-4{stroke-miterlimit:10;}.cls-3{fill:#385930;}.cls-4{fill:none;stroke:#fff;}.cls-5{fill:#2b2b1e;}.cls-7{fill:#304c29;}</style></defs><title>Tekengebied 3</title><g id="Chapeau"><path class="cls-1" d="M291.45,209,259.84,60.37a24,24,0,0,0-3.39-8.15C247.87,39.14,217.19,1,157.75,13.86c-39.1,8.43-51.9,43.93-52.67,45.12S69,215.44,69,215.44Z"/><path class="cls-2" d="M293.08,214.37c-8-37.18-80.23-67.09-117.93-62.06C147.54,156,72.39,171.08,69.26,209.25c-5.08,62,68,78.53,106,80.53C255.72,294,301.1,251.54,293.08,214.37Z"/><path class="cls-3" d="M282,215.18c-7.22-33.47-72.23-60.39-106.17-55.86C151,162.63,83.31,176.21,80.5,210.58c-4.58,55.85,61.24,70.7,95.43,72.5C248.37,286.89,289.22,248.65,282,215.18Z"/><path class="cls-4" d="M258.11,61.77s-.29-6.07-4.83-8.16"/><path class="cls-4" d="M251.29,51.48s-.08-5.1-7.77-7.53"/><path class="cls-4" d="M241.15,42.41s-2.25-5.65-7.56-6.55"/><path class="cls-4" d="M229.05,33.77a11.93,11.93,0,0,0-11.46-5.71"/><path class="cls-4" d="M214,25.76s-3-4.47-13.2-4.31"/><path class="cls-4" d="M197.67,21.1s-5.17-5-14.74-1.93"/><path class="cls-4" d="M179.58,17.84a76.56,76.56,0,0,0-9,.93"/><path class="cls-4" d="M166.66,19.61a24.19,24.19,0,0,0-16.41,4.56"/><path class="cls-4" d="M144.81,27.39a12.37,12.37,0,0,0-8.37,3.85"/><path class="cls-4" d="M132.53,32.09s-7.4,3.64-9.49,8.18"/><path class="cls-4" d="M120.74,43.84s-6.21,4.41-7.32,8.74"/><path class="cls-4" d="M110.91,55.17a13.75,13.75,0,0,0-5.37,8.32"/><path class="cls-4" d="M167.45,32.74a7.52,7.52,0,0,0-1.67,6.5"/><path class="cls-4" d="M164.25,41.61s-.69,6.29-.06,9.22"/><path class="cls-4" d="M163.5,57.12s-1.32,3.35-1,9.43"/><path class="cls-4" d="M163,73.6s-1.46,7.48-.62,11.39"/><path class="cls-4" d="M160.47,90.51s-1.66,6.5-.82,10.41"/><path class="cls-4" d="M158.75,106.23s-3.62,6.91-1.38,12.57"/><path class="cls-4" d="M158.43,123.69s-2.65,6.71-1.59,11.59"/><path class="cls-4" d="M155.72,139.61a20.68,20.68,0,0,0-.26,8.25"/><path class="cls-4" d="M151.55,148.7a17.49,17.49,0,0,0-16.62,3.59"/><path class="cls-4" d="M133.53,150.54s-2-4.68,1.8-10.62"/><path class="cls-4" d="M133.85,133.08s-1.61-2.72,2.36-12.78"/><path class="cls-4" d="M137.67,112.82a10.16,10.16,0,0,1,.26-8.24"/><path class="cls-4" d="M139.05,100.25s-3.44-6.42-.16-10.2"/><path class="cls-4" d="M139.79,84.74a13.49,13.49,0,0,1,1.59-11.6"/><path class="cls-4" d="M142.28,67.83s-2.87-8.58,1.38-12.57"/><path class="cls-4" d="M144.14,48s-1.26-5.87,2-9.64"/><path class="cls-5" d="M335.5,317c0,12.15-68.95,22-154,22s-154-9.85-154-22c0-1.25-.41-3.8,1-5,12.26-10.4,76.73-17,153-17s140.74,6.6,153,17C335.91,313.2,335.5,315.75,335.5,317Z"/><ellipse class="cls-6" cx="181" cy="313.33" rx="153.5" ry="18.18"/><ellipse class="cls-3" cx="181" cy="311.5" rx="140" ry="14"/><ellipse class="cls-6" cx="181" cy="313.33" rx="153.5" ry="18.18"/><ellipse class="cls-3" cx="181" cy="311.5" rx="140" ry="14"/><path class="cls-7" d="M323.5,312c0,7.73-32-10-142-10-116,0-145,17.73-145,10s67.18-14.5,144.5-14.5S323.5,304.27,323.5,312Z"/><path class="cls-6" d="M181,295.15c-84.78,0-153.5,8.14-153.5,18.18S96.22,331.5,181,331.5s153.5-8.14,153.5-18.17S265.78,295.15,181,295.15Zm0,30.35c-77.32,0-140-6.27-140-14s62.68-14,140-14,140,6.27,140,14S258.32,325.5,181,325.5Z"/></g></svg>