<svg xmlns="http://www.w3.org/2000/svg" viewBox="0 0 422 140"><defs><style>.cls-1{fill:#fff;}</style></defs><title>Tekengebied 3 kopie</title><g id="Chapeau"><path class="cls-1" d="M35.48,57.64c.08-15.84,13.36-28.72,29.36-28.8a29.93,29.93,0,0,1,18.48,6.24,4.59,4.59,0,0,1-5.6,7.28A19.94,19.94,0,0,0,64.84,38a21.17,21.17,0,0,0-14.4,5.76A19.73,19.73,0,0,0,44.6,57.64a19.45,19.45,0,0,0,5.84,13.92,21.17,21.17,0,0,0,14.4,5.76,20.1,20.1,0,0,0,12.88-4.4,4.85,4.85,0,0,1,6.4.88,4.72,4.72,0,0,1-.8,6.4,29.93,29.93,0,0,1-18.48,6.24C48.84,86.44,35.56,73.56,35.48,57.64Z"/><path class="cls-1" d="M107.64,82a4.41,4.41,0,0,1-4.48,4.4,4.54,4.54,0,0,1-4.24-3.28A4.72,4.72,0,0,1,98.76,82V34.84a4.44,4.44,0,0,1,8.88,0V48.76a18.24,18.24,0,0,1,8.56-2.32A17.5,17.5,0,0,1,133.64,64V82a4.4,4.4,0,1,1-8.8,0V64a8.6,8.6,0,1,0-17.2,0Z"/><path class="cls-1" d="M184.84,66.52V82.2a4.27,4.27,0,0,1-4.24,4.24A4.35,4.35,0,0,1,176.44,83a18.17,18.17,0,0,1-10.64,3.44,18.58,18.58,0,0,1-13.6-5.84,20.47,20.47,0,0,1-5.44-14.08,20.19,20.19,0,0,1,5.44-14.08,18.42,18.42,0,0,1,13.6-6A18.24,18.24,0,0,1,176.44,50a4.35,4.35,0,0,1,4.16-3.52,4.29,4.29,0,0,1,4.24,4.32Zm-8.48,0a11.76,11.76,0,0,0-3.12-8.24A9.89,9.89,0,0,0,165.8,55a9.65,9.65,0,0,0-7.44,3.28,11.71,11.71,0,0,0-3,8.24,12,12,0,0,0,3,8.24,10.08,10.08,0,0,0,7.44,3.12,10.34,10.34,0,0,0,7.44-3.12A12.05,12.05,0,0,0,176.36,66.52Z"/><path class="cls-1" d="M200.52,97.17V50.68a4.27,4.27,0,0,1,4.24-4.24,4.39,4.39,0,0,1,4.4,3.28A20.3,20.3,0,0,1,220,46.44c10.64,0,19.36,9.12,19.36,20.08A19.64,19.64,0,0,1,220,86.36a18.5,18.5,0,0,1-10.72-3.28V97.17a4.51,4.51,0,0,1-4.56,4.31A4.39,4.39,0,0,1,200.52,97.17Zm8.8-30.65a10.67,10.67,0,0,0,3.12,8,9.9,9.9,0,0,0,7.6,3.36,10.23,10.23,0,0,0,7.52-3.36,11.66,11.66,0,0,0,3.12-8,12.34,12.34,0,0,0-3.12-8.08A10.45,10.45,0,0,0,220,55.16a10.11,10.11,0,0,0-7.6,3.28A11.23,11.23,0,0,0,209.32,66.52Z"/><path class="cls-1" d="M249.72,66.44c.08-10.88,8.56-20,19.52-20,10.4,0,18.64,7.76,19.28,18.56v.4a2.21,2.21,0,0,1-.08.72c-.24,1.92-1.92,3.2-4.16,3.2H258.84a10.49,10.49,0,0,0,2.72,5.28,12.38,12.38,0,0,0,7.68,3.6c2.88.24,6.32-.48,8.32-2,1.68-1.76,5-1.52,6-.24a3.66,3.66,0,0,1,0,5.2,20.22,20.22,0,0,1-14.32,5.28A19.86,19.86,0,0,1,249.72,66.44Zm8.72-3.92h22.64c-.8-3.2-4.88-7.92-11.84-8.48A11.18,11.18,0,0,0,258.44,62.52Z"/><path class="cls-1" d="M335.08,66.52V82.2a4.27,4.27,0,0,1-4.24,4.24A4.35,4.35,0,0,1,326.68,83,18.17,18.17,0,0,1,316,86.44a18.58,18.58,0,0,1-13.6-5.84A20.47,20.47,0,0,1,297,66.52a20.19,20.19,0,0,1,5.44-14.08,18.42,18.42,0,0,1,13.6-6A18.24,18.24,0,0,1,326.68,50a4.35,4.35,0,0,1,4.16-3.52,4.29,4.29,0,0,1,4.24,4.32Zm-8.48,0a11.76,11.76,0,0,0-3.12-8.24A9.89,9.89,0,0,0,316,55a9.65,9.65,0,0,0-7.44,3.28,11.71,11.71,0,0,0-3,8.24,12,12,0,0,0,3,8.24A10.08,10.08,0,0,0,316,77.88a10.34,10.34,0,0,0,7.44-3.12A12.05,12.05,0,0,0,326.6,66.52Z"/><path class="cls-1" d="M366.6,86.44A16.73,16.73,0,0,1,350,69.8V50.68a4.32,4.32,0,0,1,4.24-4.24,4.27,4.27,0,0,1,4.24,4.24V69.8A8.09,8.09,0,0,0,366.6,78,8.3,8.3,0,0,0,375,69.8V50.68a4.2,4.2,0,0,1,4.16-4.24,4.45,4.45,0,0,1,4.32,4.24V69.8A16.89,16.89,0,0,1,366.6,86.44Z"/></g></svg>