<svg id="Laag_1" data-name="Laag 1" xmlns="http://www.w3.org/2000/svg" viewBox="0 0 500 500"><defs><style>.cls-1{fill:#21a675;}.cls-2{fill:#f9f9f9;}</style></defs><title>Tekengebied 1</title><rect class="cls-1" x="12" y="11" width="477" height="477" rx="10.46"/><path class="cls-2" d="M461.54,33A5.47,5.47,0,0,1,467,38.46V460.54a5.47,5.47,0,0,1-5.46,5.46H39.46A5.47,5.47,0,0,1,34,460.54V38.46A5.47,5.47,0,0,1,39.46,33H461.54m0-5H39.46A10.46,10.46,0,0,0,29,38.46V460.54A10.46,10.46,0,0,0,39.46,471H461.54A10.46,10.46,0,0,0,472,460.54V38.46A10.46,10.46,0,0,0,461.54,28Z"/><path class="cls-2" d="M235.42,394.55a19.05,19.05,0,0,0-3.15-2.25c0-.45-.45-.45-.45-1.35a11.93,11.93,0,0,1-2.25-2.7.44.44,0,0,1-.45-.45,15.79,15.79,0,0,0-2.25-3.6c-36.6-67.33-78.67-126-128.25-172.8-5.7-4.15-3-20.94,8.3-29.15,12-9,26-2,40,5,30,15.78,64.67,70.68,102.9,123.6C280.65,229.5,312,150.14,355.57,113.5c10.35-11.25,25.2-15.65,37.35-10.25,12.6,5,13.5,17,8.55,29.15C351,181.41,311,279.65,272.32,384.2c-.45.9-.9,2.7-1.8,3.6,0,.45,0,.45-.45.45-.45.9-1.8,1.8-2.25,2.7a3.46,3.46,0,0,1-.9,1.35c-.9.9-1.8,1.35-2.7,2.25l-.9.45c-.9.45-2.25,1.8-3.6,2.25-.45,0-.45,0-.9.45a10.59,10.59,0,0,0-3.6.9h-.9a16.88,16.88,0,0,1-4.5.45,15.31,15.31,0,0,1-4.5-.45h-.9a10.59,10.59,0,0,0-3.6-.9.44.44,0,0,0-.45-.45h-.45c-.9-.45-2.7-1.8-4-2.7Z"/></svg>