<svg id="Laag_1" data-name="Laag 1" xmlns="http://www.w3.org/2000/svg" viewBox="0 0 500 500"><defs><style>.cls-1{fill:#dc3545;}.cls-2{fill:#f9f9f9;}</style></defs><title>Tekengebied 1 kopie</title><rect class="cls-1" x="12" y="11" width="477" height="477" rx="10.46"/><path class="cls-2" d="M461.54,33A5.47,5.47,0,0,1,467,38.46V460.54a5.47,5.47,0,0,1-5.46,5.46H39.46A5.47,5.47,0,0,1,34,460.54V38.46A5.47,5.47,0,0,1,39.46,33H461.54m0-5H39.46A10.46,10.46,0,0,0,29,38.46V460.54A10.46,10.46,0,0,0,39.46,471H461.54A10.46,10.46,0,0,0,472,460.54V38.46A10.46,10.46,0,0,0,461.54,28Z"/><path class="cls-2" d="M365.8,133.56l-85.5,116.1,85.5,117c7.64,10.8,5.85,26.55-5.4,34.2a25.3,25.3,0,0,1-14.4,4.95c-8.1,0-15.3-4.05-20.25-10.35l-75.6-103.95-76.05,104c-4.95,6.3-12.15,10.35-19.8,10.35a23.25,23.25,0,0,1-14.4-4.95c-11.25-7.65-13.5-23.4-5.85-34.2l85.5-117-85.5-116.1c-7.65-11.25-5.4-26.55,5.85-34.2a23.34,23.34,0,0,1,34.2,5.4l76.05,103.5,75.6-103.5c8.55-11.7,23.4-14,34.65-5.4C371.65,107,373.44,122.31,365.8,133.56Z"/></svg>